name C:\Users\u0101727\Documents\MyRepositories\upper-imu-dc\Results\main_tracking\Case_10\FLX01_orientations_groundFrame.mot
datacolumns 13
datarows 21
range 5.01000000 5.21000000
endheader 
time	radius_imu_[0][0]	radius_imu_[0][1]	radius_imu_[0][2]	radius_imu_[1][0]	radius_imu_[1][1]	radius_imu_[1][2]	radius_imu_[2][0]	radius_imu_[2][1]	radius_imu_[2][2]	radius_imu_x	radius_imu_y	radius_imu_z	
          5.01000000	          0.32801374	         -0.87782731	          0.34903609	         -0.32531483	          0.24191465	          0.91413761	         -0.88689190	         -0.41339631	         -0.20621891	         -1.79267082	          0.35654231	          1.21319619	
          5.02000000	          0.32685860	         -0.87382782	          0.35998390	         -0.32300662	          0.25467584	          0.91148612	         -0.88816112	         -0.41420425	         -0.19900918	         -1.78575780	          0.36825063	          1.21285548	
          5.03000000	          0.32530967	         -0.86977070	          0.37104252	         -0.32183635	          0.26712043	          0.90833256	         -0.88915408	         -0.41490434	         -0.19302697	         -1.78018836	          0.38013143	          1.21288709	
          5.04000000	          0.32321001	         -0.86567715	          0.38228048	         -0.32205328	          0.27922938	          0.90460634	         -0.88984098	         -0.41549250	         -0.18854444	         -1.77628154	          0.39226296	          1.21346344	
          5.05000000	          0.32047119	         -0.86156703	          0.39370099	         -0.32369416	          0.29099854	          0.90030103	         -0.89023610	         -0.41595925	         -0.18562757	         -1.77413080	          0.40465428	          1.21469075	
          5.06000000	          0.31712879	         -0.85745334	          0.40521982	         -0.32649169	          0.30244923	          0.89550413	         -0.89041143	         -0.41629104	         -0.18403603	         -1.77348535	          0.41721926	          1.21654869	
          5.07000000	          0.31335365	         -0.85333848	          0.41668085	         -0.32990757	          0.31362885	          0.89039202	         -0.89048890	         -0.41647376	         -0.18324608	         -1.77376620	          0.42979103	          1.21887347	
          5.08000000	          0.30941164	         -0.84921413	          0.42790162	         -0.33327233	          0.32460172	          0.88519110	         -0.89061439	         -0.41649620	         -0.18258402	         -1.77420869	          0.44216983	          1.22139469	
          5.09000000	          0.30559024	         -0.84506489	          0.43872535	         -0.33596233	          0.33543516	          0.88012077	         -0.89092307	         -0.41635151	         -0.18140426	         -1.77406272	          0.45417973	          1.22380957	
          5.10000000	          0.30212586	         -0.84087374	          0.44905602	         -0.33753518	          0.34618717	          0.87534247	         -0.89150994	         -0.41603580	         -0.17923237	         -1.77276158	          0.46570857	          1.22586066	
          5.11000000	          0.29915969	         -0.83662703	          0.45886675	         -0.33778123	          0.35689999	          0.87093412	         -0.89241656	         -0.41554496	         -0.17582681	         -1.77000183	          0.47671932	          1.22738623	
          5.12000000	          0.29672896	         -0.83231719	          0.46818802	         -0.33670206	          0.36759948	          0.86689235	         -0.89363507	         -0.41487194	         -0.17116550	         -1.76573611	          0.48723905	          1.22833423	
          5.13000000	          0.29477859	         -0.82794315	          0.47709090	         -0.33446118	          0.37829736	          0.86314936	         -0.89512083	         -0.41400634	         -0.16540088	         -1.76012606	          0.49734162	          1.22875328	
          5.14000000	          0.29317696	         -0.82350870	          0.48567549	         -0.33134308	          0.38899383	          0.85959035	         -0.89680490	         -0.41293730	         -0.15881988	         -1.75349823	          0.50713575	          1.22877785	
          5.15000000	          0.29173786	         -0.81901862	          0.49406226	         -0.32771274	          0.39968150	          0.85607188	         -0.89860635	         -0.41165907	         -0.15180061	         -1.74629437	          0.51675593	          1.22860513	
          5.16000000	          0.29026610	         -0.81447198	          0.50237534	         -0.32394001	          0.41035366	          0.85245102	         -0.90044903	         -0.41017711	         -0.14472831	         -1.73897172	          0.52634376	          1.22844413	
          5.17000000	          0.28863251	         -0.80985350	          0.51071381	         -0.32027940	          0.42101680	          0.84862592	         -0.90228176	         -0.40851214	         -0.13786026	         -1.73184064	          0.53601483	          1.22843057	
          5.18000000	          0.28685093	         -0.80512643	          0.51912231	         -0.31675457	          0.43170157	          0.84457107	         -0.90409241	         -0.40670036	         -0.13119348	         -1.72490210	          0.54582373	          1.22853731	
          5.19000000	          0.28511055	         -0.80023202	          0.52758003	         -0.31312351	          0.44246439	          0.84034453	         -0.90590598	         -0.40478881	         -0.12442019	         -1.71778700	          0.55574935	          1.22853353	
          5.20000000	          0.28373360	         -0.79509788	          0.53601736	         -0.30896250	          0.45337607	          0.83605760	         -0.90776507	         -0.40282690	         -0.11701740	         -1.70985630	          0.56571239	          1.22802888	
          5.21000000	          0.28306767	         -0.78965360	          0.54435272	         -0.30384027	          0.46450075	          0.83181737	         -0.90969983	         -0.40085688	         -0.10844342	         -1.70043444	          0.57561730	          1.22659526	
